<mxfile host="65bd71144e">
    <diagram id="Jn2F4VxN4vTwLlXbwu4h" name="Page-1">
        <mxGraphModel dx="1795" dy="1783" grid="0" gridSize="10" guides="1" tooltips="1" connect="1" arrows="1" fold="1" page="0" pageScale="1" pageWidth="850" pageHeight="1100" math="0" shadow="0">
            <root>
                <mxCell id="0"/>
                <mxCell id="1" parent="0"/>
                <mxCell id="267" value="" style="rounded=0;whiteSpace=wrap;html=1;dashed=1;strokeWidth=2;fontSize=16;strokeColor=#ae4132;fillColor=#fad9d5;" parent="1" vertex="1">
                    <mxGeometry x="170.75" y="-670" width="272.5" height="125" as="geometry"/>
                </mxCell>
                <mxCell id="200" value="&lt;span style=&quot;font-size: 16px;&quot;&gt;&lt;b&gt;Feed forward&lt;/b&gt;&lt;/span&gt;" style="rounded=1;whiteSpace=wrap;html=1;fillColor=#e3c800;strokeColor=#B09500;fontColor=#000000;" parent="1" vertex="1">
                    <mxGeometry x="250" y="-482" width="94" height="62" as="geometry"/>
                </mxCell>
                <mxCell id="316" style="edgeStyle=none;html=1;exitX=1;exitY=0.5;exitDx=0;exitDy=0;entryX=0;entryY=0.5;entryDx=0;entryDy=0;" edge="1" parent="1" source="201" target="200">
                    <mxGeometry relative="1" as="geometry">
                        <Array as="points">
                            <mxPoint x="180" y="-407"/>
                            <mxPoint x="180" y="-450"/>
                        </Array>
                    </mxGeometry>
                </mxCell>
                <mxCell id="320" style="edgeStyle=none;html=1;exitX=1;exitY=0.5;exitDx=0;exitDy=0;entryX=0;entryY=0.5;entryDx=0;entryDy=0;" edge="1" parent="1" source="201" target="317">
                    <mxGeometry relative="1" as="geometry">
                        <Array as="points">
                            <mxPoint x="180" y="-407"/>
                            <mxPoint x="180" y="-357"/>
                        </Array>
                    </mxGeometry>
                </mxCell>
                <mxCell id="201" value="&lt;span style=&quot;font-size: 16px;&quot;&gt;&lt;b&gt;Mode Decomp&lt;/b&gt;&lt;/span&gt;" style="rounded=1;whiteSpace=wrap;html=1;fillColor=#dae8fc;strokeColor=#6c8ebf;" parent="1" vertex="1">
                    <mxGeometry x="68" y="-438" width="94" height="62" as="geometry"/>
                </mxCell>
                <mxCell id="277" style="edgeStyle=none;html=1;exitX=1;exitY=0.5;exitDx=0;exitDy=0;entryX=0;entryY=0.5;entryDx=0;entryDy=0;" parent="1" source="223" target="275" edge="1">
                    <mxGeometry relative="1" as="geometry"/>
                </mxCell>
                <mxCell id="223" value="" style="shape=image;verticalLabelPosition=bottom;labelBackgroundColor=default;verticalAlign=top;aspect=fixed;imageAspect=0;image=data:image/png,iVBORw0KGgoAAAANSUhEUgAAAIwAAAAyCAYAAACOADM7AAAffklEQVR4nNWdSY8kuZXnf9xsc/dYsqpLEiToNgJ06jnrm/dH6EvPdRpoYLoBobuUlRmbL7aRfHMgbXEPj6zILNWgh1UeaWFuRj4+/vk2PjLUP/7Pf5Q//Y8/8ec//5n7+3uccyilUEohgCDz7wqFSLpL/ikiREnP6Ok9kekRtNbpWRFEYrqvOCtqdUNyXQAxxlSv1mitU1sxEmPMdPDqPaUVKEUQWZ4RwRiD1vqs6ShCRJi6pMh9mHo3NyHXaVb5MZFUd+77RCMy1ZTuTRVO/Jz6CKmPxhgkCjEKRmtQat3gWdvp/dTXiRaJgSgxtyiQea60Qms18+m8UlnX+qqxYRj48ccf+ad/+ieOxyP2/u6eP/3pT/zlL3/ht7/9LWVZngEmMevbAKMyc8j3ZsBcFJUHSfLgcgUwaq5D3gmYyPyICMZojDZn70RJjE30Kub/FBMSXhO7onnd9prGECIxytl4xxgJwRNCQDKAjTEL3UrPv8sEmGnglFouZ/pU/j8BRymIElfAlJnnM1+mcVtNyjQvZK5nDRalFKfTiX/7t3/jn//5n+m6DluWJd9//z1//OMf+cMf/kBVVQtgJobpmazlnkrNxzyIE6D0DJj03CRhJqZdK/qC+evnU2f12Yy8rGd6Z565GmJM0iM/gNHmfBCASAKeZMYtgFGwmhjXyiVg1jxL5KRBTFUlHnVdx+l0ou97yrKkaeozia6UJoaIxAWACoWo9SCu/r2QegvbJ+maeJUkjF7dz/RP7MliX10BzOFw4Hg84pwDwE7ifiZwJS4XpkwS5pJrS/WL2lp9uapjDYQ1s+fer6W+Wp6bPpNKWtP3ipz1d0pILFrVqc55rAVkGuTpEbXWBNfbudaHS76tAR5CoOs6Hh4e+PTpEy8vL3z48IHf/e533NzsKIoCrTRRAkoJqDirnHPIJikxCxyZLrJKkrXaA5HcaVnAoVBZXfGq5p8rSinsO567wN2qXKj2s2dmcfm60bcakbPRlavvT3VcAlAWjiSGymIuXTGbXtG84vuahG8qE+iipI+PQjeO7I8nHp6feXp6Am3Y3tyw3W0WMGepMKmUcwLUK/ic9Wxtb3Ht+vpr7+9TesF672cRPxlebw4qrwdc5qFaCbQrr1+XXFfKYoMhKs720/SeMSbZMK9eWNtMzCoTso2hNEad2zDMQJPZQJ2NyTUhX1FmiTp9tEKMIRqLOIcqK1yzYQT2p5bfqsn2CSTtnVRQUiFJha4l/RW7dC5aFGDmPqd3VypJLlTSxJ8vqKRJ+0zFTqpIr+yEr2LQKyX0hWffU//qkclgvlbPNQGwBqtaLuZ/hXhBsUyK84L4y1mqLi4vDO51ravHowKPYlCKVilabRidQ213RGMZUASSR6clnqtFmKdisgnz95knCv0FQbEY3FrPhtTMu8vyliSfwLWW5vbdM/8L5dveek/FX1BJc7tfMkzPLyQD5Osl8ho0r13spe4FNKIgAF3w7Puex7blGAPBlVhXIiHQx4hflCkzgGdQZtjMqgoEvWpnRdfVDqm3WPjucumNvsuG+e9W3qGl3xjU9wDlqty6+O5SIV7aEekySFI7f3t64uPzMyEKtixxxjKejnTjgI9Z7WqNWsVq1hSLSFIrxjCpqblVOXv0Z/ryy8v/d4B5DZbXpuCXGLU2hM/LG9Js/d2FOnplgk6qCBhi5HBq+fz5gf/6+Dc+Pj7hipK721tu7j9A3xG7keADUQSUTlJKyUXlktWpIsiirua+zKTJBbTfBxZZV3aFC2tP9d1e0n+Xck2yXGfLKuh4dnd555rc+BJk3lsm5eFD5HhqORwOtMcTfhiw2qBFqFxBtJZekYN5EbRNgyeTN7QARZQmRCH4gEayIbpAWV+l4n20fm2xv6IF8nctb4Plkv7Z7zkrl36PrOAjX4TM2+79W7RFSYBp244YInVZYl2BcwWbsqJxlugc0RhCCCuvb0XlukmtGcaRrh8AKIqC0jk0KegpawH4DTD4GpvOvqbul5dvcPO/qY0U1ic7OWoGwjL8iYq4ApES8nqROgPWpAn0FYUlyJX+ZP0wD9NSXxBhDJ627xCJbOqG3e6Wsixw1tKUJb3WKIS27eiqmqIoIAp6UjkSUwRcaXyIPDwf+PzwhDWG+/s77u8KrFpDbH11qZ6m8vaovHfMfiWVJO+Yl99a8wKWKLmlOeKZFxQlrcUIEGJgGAdCjDl0LlhjcdYmIzKDTbOA5qxcetwXxIhawBLzx0tkDIFhHEGgKSt++HBPVZY5qCicrMVpS9f27IsjSisKa3BGYRQgEaU0EiNt73l8PvDjpyeq0uGqmt0NaKNWNs11efvuct2we1VWKunvN7wphH9e57WA0S9rI9UZAZOZFoExBEIIVEVBBDrveXp6ZhgGQkxgqqqKptmw2TQYo5NUEbkCmktVtShDUedPrT8hRsYwEkJAK0XlCm7qiqosQYTgPZuypC9L+q7nwQe6tufDh1uaqgCj0CJEiYQg7I8dT/sjT4eWbRS6ITBGwRo1L3+oPODnFH/ZOntV3gGaX0XCKBTjMNL3PcH7ZF1biyscxthvDhJeDswUyIoCY/CcTi2ntiUEz267I4rQdi1Pzy94nyIe4xg4nVq6rgcFdV3jrEmMlzW/1oJ8LbCve0lrmnwIDMOIiOCMoXIOqxQ6iyGtNTebDVrBy/HE8XTk+eWZsnQ4qylcCXlFfgyBQ9vRhwi2QNmCgGIYA5VTM3UThedUrnn89xEMv5qX1Pc9Ly8v9F2H1pqyLKjrmrKqKFyB/pkliNclxyS4AE0UvA90fc/T0zOntiXGwOg9IUaGfqAfetQc4g50Xc8YAmVdYazFGp29EfUqo+FbAn3Be8ZxBBGstRTOYVSSGkiKvm6qEms1ylhGP7I/7DkcDpSFoyocRiX1OnpP2/UEUdiyRruCIIrRBwTDtHD7urwPIGuwvaf8aoDpuo6nx0fa9oTWirIs2W62bHc71EZR5GDVWSjyTQl67vdMJp0IhBA5tS0vL3s+PTwSQpJox+Mp5Z4gbLdbms2GoigYBs/z8zPtqeV0PFGWJWVRYK6BV63iNpMncjE417w3HwLjkAGjDaVdSRgRrFIoY7DOYFzJGDz9MLDf7ymcpa4L6kITQ6AfR/rRo4yjbBzGKCKKYfQoKVaR4YnkJaAgZzLn50HxHuD8IsCsmbUWhaMoTl44ekEZh1JCDIGXw5EgiqgMN8bilD6PIayjavPEWcAiqy5FYIyRU9/xcjxyOJ1Q2rCpaozW/PTxb5zaE9ZafvPDD9zd3lKUJTEmG6LvOvww4oeRGCLK6jeZtRjw6sx2uYzsTKTHEPDjiBKwxuCcXSUxATrVoxRYC7tNwzjc8PlTz37/giLyw/f3xJjSIiQGSldS2gqiR6IkCSMLJKb4r5AqFkmRZj9J2+DnyZlso4A1hsIVWQK+3f91sT8XAvvaEgUGgTZCJ5pNUVFahUU4tj2HtgXrqOsGq+21qNOrsgBn6VIUYYiBQ99zHAZGEZrNlqaus/6HoR+QEGnqhk2zwRUpCaiukkQJIRBDQGJknel3vVxRTmdubYKVxEgYPXH0GKUoskrSOnk0MvnNuRqjFE1VEm9uGLqW/f6Fh4cHdtsKiZG+61Ai1KXFlgV9l7LokspNU0hf0CkofAj0PtD7kVPX0Y090+p8zPVWRcntdsfdbocxbw1EIvbvEul9S8IMEbqo6DHcVDU3m4pKwxg/0w6el8ORu9t7SicYFHkR+ZV0maEs60W5VIIIvfcchp5BBFdWfPfd9xTG0p1OlEWJVhoE6qqicA4R0AqM1hibl/tjnAF2fYqtPL0LsHDxjYgQxpEwjMTR47SlLIqUIKXX9ZxbGKVz2N0WYxTD0PHp00fa0z0g9MOAM5aidLi6IPoR7wOjD4w5u08pybk0i+HeDSP7U0s3jjwfD+y7I1EBSvDes3954XazJYqwaRqcsedTYi1HZOmwvbQPfkmZYhE+SnJhAaU1zjmqwuDKiuN4oh08h26gKIpkcErGi1rqma7mJXYUIku64jAMHE8n2q7DKE1T19Slw2oDIYHHKI1IoHIWTaIJnXJ7C+MgRqJPUmZu8bopc9VWmTBuSCkKwXuOhwND32G0ZtM0NHVF6TQ6e3OTWr0017TW1GXJbrOhPTV0bcfoR4bBU+8+sGmqLGG6ZJvFiB8FbyLGLHyKAsPo+fzwyMPzC0Vdoo2maRoGP6KMpiwiwXuMMXjv6fseqwyFNWgWw/8s+BeTBP1mCbMG4JqhIsI4enwMoMAYjXUW6xyuqBAz0g+eYzewbTxN5b4Q2l7bL+d3fAj0fc8wDDRVTVk4SquxWqMrx/cf7qhLRwyBwln0igPJrnAMfU8IPgFG5GzmX/b1tVO9pjmlYg59z/FwJIye0jm2mw11VWLNRYq1el2HIiWqN03NpmloTy390CNo7gpHUxWYwlBYTa8VMUbGYcRbcEqhFcTsPT297Hne72m7jnq3oapKRCtGP6KMSjaMD6gQ8d4zDCOl8zhjWMVAzwhUimT3XOHPV5c1aGKUHH8Z0Sq5lcYYtDG4skS7njAKx66nG30CgMreh7BciOTrpJNndSDp+RjTLAnBgwhGaYyCQkNRGpryhvvbHVHA5OipReEjOGspC0fXngjeE2PgEpjrwVz3E7gAeCp+HGlPJ9rjEVA01YbdZktVFIv6UczbWC6jOQpJxm1RsGka/vPxkWEYqeomrx1ZtFEpZqTShOn6jsYKlXEo55AgtMPI3z59put7qrriw4cPlHWVE/kVkUg/9PiupzueCD4wjmPKuryQ8NPKhyJpimEYrgHmfR75NTEtQJBI33fE4LFaYc2yL8kWBWVVYX2k9yOj9wksmjkHd5Yzkx2jFIKeM/GnNmNMxpsCrNE5+JZekmlwtJrd4GmjgQgYbXDWgSTvbZIw18orCXrBpen7oe855QGoq4btZkNVWrRW5K1HZ6kJ57Wl5HZnLJu6RuIdfdczek+R3f4JaFZrrFL4GPF+RKRAacM4Btph5GV/5On5hbv7W37/+9/RVGnbUMhbTrQCqxSFMYxJbCAxokSWHR9z/7KxqzXW2jVgzgTm+8ucfZbeCxGGMdB1LUoiTV1RlQXWWpTWaaZUBa5PCB9DSDNe5Vk7G7xTgG6RLMu/IDFLmJgY4KyhzMGxdVlSHc8Ht3SOpq4pXEH0gdPxRFVW1CVYa/MATl1cqaoveFHj6Om6HpFUR1kW2BycvDRyXyvZVLTWFEXJFkX8PhBixFhLWZbZHiOvN2l6ks007YnyMTCMgbZPcRtXFNzc3KBJbvQ0kTQKrQxNUTKaln70WcrGNydNMugjWv8iG0byLrslxXPwwqENHI8nXOn4cHfDbruhtBYDlFoo+xT+9qQB9wG0Sd5LqndhbZyv0g+RnImfo7sxBLTRFM5RFsl11TN9y8tru0EDui5RWnE6HXl+fubzp8+JKXd3bJoNKZ6YakrqKomHZa/Qa1UVQmQcPUppdN5luW5bv421s6K1pqoqyqpIdQvJgYhJSpTOUjiL0SmwJ1kd6xzQ81Ew1qHnTXtJcui82GQy5Tf1hv54Ymg7hiEZ2BGQOK2ST8TLbJ/Vdf3tgFGohPqVPu/ajv3+gNGGuippqhI7b5UFoxWF1RRW0caRsW/p2hOqKhFJLuThmNw/bS3GJldPK01dVRhjQIRhSOH+cRzBarRKQJAo1+T+WUl2VppxH+4/IFF4fn7ieDhm4BWUZXE2gLM+yYuqegXmqdJpg521LrnteVvuZAd8rR+6TmI3SqGSqMBolcEXGcek1r2AjzAGwUdBW4c209Dm4J5MCj15VKVz1GVJawxd23LY7ymLgrqqmQdsleuttcZZ98uM3vWWCoCu7zkcTxijU/zBJR0+jZ9RUFhFVWhOBvzYczzuSfGGkcPpxOHUEhREpRiCx2rDpqz4hw/fYYwn+LSo2fc9IDhrsugHAohebQN9o0wb4uq6ZrNpOJ2OnE6nOTh1e3eb7AajUyznwn8789iyVg6SZuK0VedLC6zvA4+af6Y5kAbQGo3Vac/AOHpG79MKfYQxRHwQrCvyZMtKXZhX4qdkMWcMdVFSlSUv+z2n9kR1LKmKEvKW3bV/rVWaBH+3taRAChad2pbdTYOzBrOSw9NlaRSb0tAVhuB7Xp6f8CGyP5542h/QRckgwsvpxH/+7UeaouR33/8Ddb2F6Dke9vhxIBBSfKfO201Rybi5FkhZlcmkS7MGisJRVRUPjw8cT0cOpyMR4cP9PY2tz2ygKZYyCTKyetRKLTZV9ghVVkmZ3xfRrtf2y1tlbTtpJcnoNQatNCGkRc5h9AQ03gd8iDhXYo1d1ZFBMzkWOWeoLBxN03A4Hej6jv1hz+3NLVrnxPNpRmTJ+irS+4bN84rd6SqdMoBSRDR9SDaMSJ71M2AkDxBohMIomtLidw3HQ8swJCkjGG7u7qh2NzwejjycWtreo5WlGwKfHp+xSiC7nkXlcJXDVQV1WTB5GlntXrVPJ7d/8qBEImVZcnd3R0Q4HI9473nZH9DG4GMk5lSFcRxRWqUF1O0mr9UsGX8x59oorXIYYZGs62jSedjufWXamz1l/mm15ACFEBj9iGiHD4EQIlVpMXbZtLe2uaZ/tYLCOZq6oihL+q6jbVvarkWRPMlI6tOUEZDjMGrexD1vTF9VfE0QS+5EiBFyxSmpx6O04AqDs3rulMomulIpE652BbLZoEVx0j2CoSorinpDudkSRHiuK263W7QyDD6lKG4qx7Zy1E1Ns6moqgLjFE4ZNClD7YuOXh45hcruruCcY7vVKGPAWB6fn3naH/ECvU8R4Lbt6NoWEfjND4qyrtMJDZklWhRjTL9rbdBGZ6N55dl9hVR5k/A8KbQGo0HlsEDwHuMMEjwSBpwpZtvxasmzyVib3PayZOgHxnGk6zoK52YJNQF1ttFmkmQCwrrOKYA2mXiLXouSjrUARVTQ9i0+DhgrFBNgtELHFYNU2rLqbMl24yhcxWbriaKwrsSVJWhNbArihzsaa3h6aTmePC/HHuccRd2wu9nSVI7CKjQRLZL2AarZL78KnATeyZCTKViT9H1RcfQROXY8PH3i0A8c+pGqLOhzBHfoB4qqYXN7Tz8MyXMyGqXSthJRKiWI5ZVfWc2+a4C5CAJcJVrmB2UGujUKawAViSG5xYUrUDIivsfpBquXlWzJYzS3kFUoWmGto6pq2lOXpEzX0TQN2pqV4bs4EvZyFkw5smf6dt55N0VI8rEYRoPWhBBpuwM+dFgH1irMfETIamEsJmKVMskwLjXOFUiODSidwtZbZ9C7DbuyRMUnjqdnxqDBFBRVTeEczmgMEYNn2RU8dU5YoJF7cTYR0ijo7FEJoDS4qqLZ3TKEFKFuNg11VVL0A8oUPD4+cuh6fvz4icfnJ5rthpu7W1BCHwOs7JdJCs/ImUPZS/uXskZduZp/UykZUyuFs5qytFgNw9Cxf35OKRvHPTK0OH2P1dM5DWo2otZh/zhZ01pTuCItlQwDwzDgfSAdM5LV+KTupzjMTLgsFU83ZUb3ivkIkRQXGLqOY9ex3z8T/IArHNbq2Ts635il5krTxnpN9pSZAy0SKY3G1CV1VfPp8ZRSBiSdn+KcxRqDUUmq6CnINiPiDfGyYv5kT6yT1YwS6sJye7NJidg5YFYUBWPlUdbRDZ52jJx+euDjTz/x/Q/fYeoaJK0en3lIqMRqSTQtRxZMAvCSzi/RvVjPCrDWUJaOonD0XcqhCTHgxwFnNVVh5wj7XPsEmrm1PMWUxhUFrigwXZfsoBjm56coxXR+jZ1plfXAshwpkqefzDkIKVs/xOQVPT6/8PD0xMv+haIs2G6abMWrlYW/mHxrw3omXkBW0Uils+uoDEoJYexBOzQBq8CqHIA74+n5jH0TMme6YrolGGDrFOW2IDQOjEUbR9TgQ5lWir3w8dNnPv70wMefHlBlyd2HgRgGgk+Ld9rofAqWrBi4Vklr0HyR0leETzLTGpsi01VN13ac2lPeTqvZ7XY0zQZn3ZmMXRvgZ3WqJOWLIkXkYw4PSJZm8wkO+ZSJc7d6hZmpMymXPgJ6BlGQSDeOfH545OOnzzw8PtL1Ld99910K7miDmY0+OQtczQJnpnwFrDyYCuY0BqPBWUVZWKrCYPVa2y9HbQlcXRQ8L/Lqeq5HAk55jAmI1oiKBAJBNFEpjDU0uxvk8cBhiIxi8FHRD57QdWjxlK7ATNJ15ZZcN3jXQ/ia4ss766etMZRFye3NDUCKDJclZVFS1TV1XWOs/QInVpuAlEqnc5m0fOP7nq7v6do2eUoxzieAKXKK5kxMPi1JsnGVl1dJDrEwWTJehG70PDy/cDieGL2n71OWfOEcRpuLEPpqxq30wHxEjppC+mpG1DScdem4u9mkvThNSWE0Wp2tX7+rrI4cOrue7DKFoFRMPVXTskdESJFkazR1XVJVSU1VVY3WmnEYGfuO0mhsbTDazOeppOnyLV7RJe3nUNNKU1jHdrvBGMOw2WCNpSgKijLtsFRvrEUsgmCZMMsZMIphHDidTuwPB6qyREJcXkzSfRErPnhkSG52Ci/nFeAMHiEF6IYY6EbP8+GIaM3NzS3ee5x1OGvT2sZKIJ7P5elyIj3VnWC5SIsk0+Bm2/D7335PUTXsmpLKGUw2pJO2y4Ojfj668bNzWpKxGmMO/a9Un1FQO8X9tuK3H26odKR2hjD2jONAaSqczZNlttVyzeqcB9epertck0tWa2xVs5lC+avnrp8k+IU6VVZ3Igxdzz6C1QbZ7dKGwNUBTnbqEAjjONK2Pf0wUFQ1VbOhbCqQRESIwhACw+jpfSQqze52x4e7e+7v79htGpqqTjbMzLZLoKyLOru5FtzT3dttQ1kWKGMojKE0CqNikkhzVHfyka4wf6X60u/rPZnLiCZvwiLElHeLBpVcZgMUgNbwm/sdtVV8rC1t1zJ0J6L3FNbS1HVamZ8RkvN81yrgjJr3Kc/3WzmpzGf7vTGDhDQ5F4Nf53WkKi2J5AStFEFnXiYQySmaU9gXSfuJ9ocjxRhQ1uKaiijQj55uGOnGkSiR3geiUlR1w3fffeBu11AYm/bUaP3lfOorbHhLOlRF8gYkG6YaSds1zuq41pjwc8sEl/QkJ9HMEm8qhgX2u9pRmh3iB378W8v+eECrFN2tqgprk8GfTbdMikJW+1N+nU3E655w5hFd+/5SwhTOsdlsGMd7FGmDX1VW+DzeMUZkHbhTSuWjNU90XccYA9W2AfLBOMeOx+c93ThgnU0pgaRclG1VYqtyxqxmsTF+iQafBknP/+br897yGjBZRs2eys8M0BsBkSUrJ92K2VMsTNqIJsFz2L/Q1DU6M93ZlL+r5Asj9o3lvTCbu/yl9leVCcz5M01dY4zBWYuzjv1+TwxpnSzEiE0edaq5KBLK2n7g1PUcjy3YF4KxfPz8yH99/IluGLm93bHbbdAmb2gn680oKFms6td0fw0HJ60/DVoOGsqFVJn111ugeX+zi8e0Fk7ZQwRS5DH1rSwsSMQPA+XNbTaG8w7HGXDn5vX/63J1Pe0NcozWGOcojZ1X7dOH2a3W02r15Gtba2iahpsxMIwPSdLIMxQlLy979s8veKAsLGVhKazFGTPruWkmrj/vZddrBbUARk1R5leq6K3f1/V8nfifPJsEmpziqfKiX6ZL65y+kbfZ7rYbmqpa4k8TgC+DTuptan5tNfVzJS07GNQc3FoOvE7fp2KBGSwpR6RCUBxOR54PJ45dh61qfHtCx8CmqlAxMLYnbnc1tXOYHOwxSmHz/pZJKlwGiiYRz4qYRQVMN9fm79p9fi9Qrjz2JnLfVl1rSaNI6Q0mRzxVkVZ6b7ZbPny4p2maeUZfmNRLudrf9/fml8qqV9Jlyt+dhXUegbzgOOX4Soz5bzIIVkSIIeJHzzh4JB+Ztdtuk97a7+n3zzgZud8UhOgJbY/Egh9+/xu2VTWnCkYBr2IyeiekrtGxCgwuRukkSVZn5p6Rr1ZPXCtqqVutAHp5eNvCpet1qOV6DdCZmQrU5DKrBJ4//P733N7fsdlsqcsKUPNuxLVqW/99hteULB7VcszqlS5+gwS6PAFz3adrXtR6ziiWo/61MWkF2xossvxRg6kBYwzbbQNKMBratkWoQKmcHjngrON+s6F2Lp2ctOqsSMyH/GRv4Wwgr/Us/3jTtUoKbjkJSuZ76dfkhbxnBr7trr6e75fkrDPojFLc3ezY7rakwKNKRyqv1aZasv/W715r93Lp4JeWN5WxWnFOnd9nfT9P5kmqTqd2zUavyHQSeNogb5yhKgvub3dzdnqMaeNTCCkxelMWTGk6l+mI81/zuDzD/Uz0n5vD6sq9a4xYX6WV9WlOr2T+Ordg/Za8rv+67LrG8nOKpi0bqQ7JZ84trS4/fwYC6uKZvwNiEpvflslffjE/p6YVfUUIeQP/8XjgP/7jP/iX//Uv/PWvf8U6mxivlkGNOfPs8k/PWOsugHKRT6suKFh68roT6jWIrnfzsj6VpbqwLFS9PVCXYvpLf+jiSyWuPlNLKdF6MtSnitb22KWkWbalXlcfa4K+/PVluaZy1vVcGYE8wWeDBpFI17b8+//5dx4fH5Nb/fT0zP/+13+lH0Zudrv0V0M4/+seU4emz1sdPLv3yrJlbcZMJJ6T/LUza20TTaCZm34NmrcG5WtBMwnKtwHDktYxPX02jy6i4GsWvbWhbj0Y7ylT+uhlmaTZpbol1b9Oc40xnXPz+dNnPn36hDGG/wv3Cf2EDBq9ZgAAAABJRU5ErkJggg==;" parent="1" vertex="1">
                    <mxGeometry x="-217" y="-432" width="140" height="50" as="geometry"/>
                </mxCell>
                <mxCell id="241" style="edgeStyle=none;html=1;exitX=1;exitY=0.5;exitDx=0;exitDy=0;entryX=0;entryY=0.5;entryDx=0;entryDy=0;strokeWidth=2;fontSize=16;" parent="1" source="242" target="245" edge="1">
                    <mxGeometry relative="1" as="geometry"/>
                </mxCell>
                <mxCell id="242" value="" style="ellipse;whiteSpace=wrap;html=1;aspect=fixed;strokeWidth=2;" parent="1" vertex="1">
                    <mxGeometry x="440" y="-395" width="32" height="32" as="geometry"/>
                </mxCell>
                <mxCell id="243" value="" style="endArrow=none;html=1;exitX=0;exitY=0.5;exitDx=0;exitDy=0;entryX=1;entryY=0.5;entryDx=0;entryDy=0;strokeWidth=4;" parent="1" source="242" target="242" edge="1">
                    <mxGeometry width="50" height="50" relative="1" as="geometry">
                        <mxPoint x="390" y="-373" as="sourcePoint"/>
                        <mxPoint x="440" y="-423" as="targetPoint"/>
                    </mxGeometry>
                </mxCell>
                <mxCell id="244" value="" style="endArrow=none;html=1;exitX=0.5;exitY=0;exitDx=0;exitDy=0;entryX=0.5;entryY=1;entryDx=0;entryDy=0;strokeWidth=4;" parent="1" source="242" target="242" edge="1">
                    <mxGeometry width="50" height="50" relative="1" as="geometry">
                        <mxPoint x="390" y="-369" as="sourcePoint"/>
                        <mxPoint x="422" y="-369" as="targetPoint"/>
                    </mxGeometry>
                </mxCell>
                <mxCell id="249" style="edgeStyle=none;html=1;exitX=1;exitY=0.5;exitDx=0;exitDy=0;entryX=0;entryY=0.5;entryDx=0;entryDy=0;strokeWidth=1;fontSize=16;" parent="1" source="245" target="246" edge="1">
                    <mxGeometry relative="1" as="geometry"/>
                </mxCell>
                <mxCell id="245" value="&lt;font style=&quot;font-size: 16px;&quot;&gt;&lt;b&gt;FC&lt;/b&gt;&lt;/font&gt;" style="rounded=1;whiteSpace=wrap;html=1;fillColor=#e1d5e7;strokeColor=#9673a6;" parent="1" vertex="1">
                    <mxGeometry x="505" y="-406" width="55" height="54" as="geometry"/>
                </mxCell>
                <mxCell id="246" value="" style="shape=image;verticalLabelPosition=bottom;labelBackgroundColor=default;verticalAlign=top;aspect=fixed;imageAspect=0;image=data:image/png,iVBORw0KGgoAAAANSUhEUgAAAI0AAAAyCAYAAABhwlgFAAAey0lEQVR4nN2dSY8ku5Hnf1zdPSJyqaontdQ6CFADOuqsi77/peegowBBwOuZ1oKnV5UZm29c5kDSl4jIrKx6pcZgCHhlhqcHaTQazf620Ev89re/jb/73e/4/e9/T9M0SCmIkasWb9185T5AFIJIJMZ0CSEQgBCCW98SAPmZN7fIq88LIdBaE2MkhID3/kt6XxF3RVmee5yuCIu5Rea5juPI4XjgeDoigN12x253h5QghEQIkeYiRB5nPZYoHX4JyUKkfjM1Meb1inHVu0iTm36WZxDQ9z0fP/7IH//4R77//nvu7u7QdV3zH//xH/zhD3/g/v4epdSKuiITrwrHrb8JMc07hEiMIZEnWExk9QXS7beLjHjh9yVNQgiUUldCc5uGzw22Xs64FJoYZ+HJD0QESIEPgdPpyMdPnzgc9ggheHh44PHhkaqyKKUQCEIIKCGRUt0Q0Nvz/CzZQkybNsbIMAy4ccRai1YKmaQ2z+tCaIDT6cR///X/cDgceHp6IoSANsbw/v17fv3rX/Pu3Tu01l9E1EuiFPNfBInosNQ2Mu2m26Lzr2mFhuU4L9H+Ig1Z0AQg4oXQsBCa6SGJJ9IPAz/++COmrtjd79Bac7fb8fDwwLvHdxhtEMAwDGilMVpPVFxqmK/hj/ce5zwheJ6f95zPZx4fHthut1RVNQkUgMxCRoyEEDkcnokEPnz4QNM0nE4ntJQSgBDCancu24umqTDrxi4QQoJIWqaoXSlV/mOR/GuOvNU4ieXPCMkQrs1eBGKIkxYQAoQUSDHtq/ScuOjzZds5/boSGjFrmmlcAUjJ8XTk0/Mz++MeISX3j48ABODUttw/PGKlRABKK+TCpFxz4hXuvEBzjJG+7zkcDuz3B5wbiTHy977n/v6ex8cH6rpO65U3lshaX8rEtBgj3vtJRnQhcCkYl0JyS2hWuyvbv5lwgRRpcB8j4zDi3IjSGq0UWsksIHNPaYYJB31JE2XhCg1ZcBJdECIEHxjGAecd1lqsMWk33xiryMZNKmZ4MAl4ZCVPMwtiZBwdp9OZw+GA857NpqFpGrq+p207un7Ax0AEFAKdzVLMmKP0tRTieEGZmP9w1ZJ2DRwOB3744QeGYaSqKrTRPO+TmaxqizYGrcUFOwRSMG2wpTbSUkqklG+28bcEOoo1lyMLwCsl+/bM86dPWGu52+24226xRiPz10QxZoXANTtepGTCF5NQZ4ERgjBpgvS3/acTz0/P3N3teHh8QBmTGXI9kvwcExZq7gpL5Z/BB07tmXPb4pzP5uieylb888ePxACBCFEiECghsUriY8BfmNHbI3wG0wFkDfHp0yf+/o9/8O+/+hXfffcdxhjOXUcg4kISWill2swk7SxiREqFsSbhH22QQkIEHUJIg2a1+EUAMT+rEEjAE3H5/kBkGEee9s/884d/sn96wmrDh2FEILjfbbFa5fGu1W6c9/CNdim6GTd5TwCCEEQhGL2n6weePj2zf95zPp75+GnPL5xHVxatFVIKJDPGKjt8tYPfxBJBIOIz5WOIHM9nhnFEKUVlKqxUqBhRCEQU+BDpuoFKW7SVk/ET02aaul5x6IqcWcmmjxFC8AzjyP54pOt7tLXcPz5QbzY474lS4KKnH0cGN6LyWhQPNwLeB5zzOOeyaUr9yzRIfFVYlgI1CdbqItk+IQiknX4eRn487Pnh+ZlT3+MRtMPA8Xzm1J5xzmcixMU1a4fX28Ks5Y8hBnwIOJ+YcTy3fHre82m/xwewVc2p7dgfT5y6ljF6wgRgZ1C7/Hn94XVqAhEXA70f8zwdRhlqazFSJzMkFFJoYpAMvUu8WAyzFJiELxKPl/yXiyvdmxQ1WSEwupH9/hkfAtvdjs1uh6ktQkuU0QSgHwdG53A+LHhRBC/gfUgCE2Yc+mWu0rJlBBqBECNOyGlQQeRwPPC3H36gH0d2uy3vP3xg//GJCHRdj/f+Giu9eVe/QJKQkAWn7Qc+Pj3xab9HBMG//exn3G13uBBwIfC0P2DrCqt0xiaBQNpFXxgpWpEfgCE4TkPLueuQCKy1VLai0hpipDIWowcGB270BB9eMEMiA5pXtAxF4WfcQUQKiRDgQ2C/P6CU4t3jI7aq0NpgQ6Sua9quY3SO0TtCDDcpAIhxgRN5g/l+iTmrKQhBjElkokh28ng8cdjv2dQ1jw8PPNzfU1lLjND3A8Mw4n240MNLpPLawl0+UzSeJAqBC4G26+i6jhgC79+/4+5uh7WK3W4DMXI8HBI4DoGkb+a+Xg4jvHA/FpcgCdwwjJzPLc45lFRUVY01FqU0SiqMSWBcSYEbR7xzC2y29AFf+vkyHcEHfPD0/UB7aun7DmMtD48PyRwL0FKy2WxQSjEMA+M4EsIc9Lz0QC8/fJXQLNsSC8gc1eyGnq7v8M6xqRvumg3bqsZaixDgnKMfhmRbr/ggrjyEl0ZeTgRS/CdAxjIdoxtRUvJwd8e2qdBKsts2SAHn9swwjIzeJQ/mleDlst10BBaeBcA4jLRdC4DRSctopUlOh0BrhdbpsxtHws0o9Srq88LI66dDjPgQGEdHe245nU6AoK4rNk2TNFAEJSV1XSOlZBxH3JgwS9Gwkwe5NH3TH76B0KS+JEooFBIRIufjieA9TVXR1DWV1mhB8pikxPvAMIy40RPDZ/nx6sjFQRKkGEwEnEs7LUaorGXbGKxWKClo6gopBcMwpOioc3jv8dETYiB+ITHLwGX57uhGhr5HKz25+HNoI3kqSkqkEHjnknlaxH1ujHLjt2s6Eg6J9MPI4XjkeDzSNA2bZpOCtjnOIoSgqqpJaL1zxBBnhS3ElNpYXXksOQWo3rjTbk0nZEQQSR7M4bAneMe2aaiyhyKEoDIGJRUhBkbn8NFPoO11+PsKbVnNxaTkGMaRc9fRdh3GGN49PlAphRagZaFBELzHu6yWl+D+9dFuU1cCezEyjANd19H3A9Za6jqZpmVuSWuNsRZjTAKbwb/ojLweWC0aJl0TphqHrGkdd7s7mrpGkkEzySJUxlAZjVIC5x3OjXjv5vEu/JzCZ8HCe/paoSmkZ0RDCJ7T6UgMgW1TY7WeEH5lk5sbYmRwLsUIxJoB11R8RpSKwAjwEQbn6LqOcRyprOX+7i7ndkAjqKzGaIUg4rzDl5BDdrwLf760iZjiG23b0vUdMUYqa6c5i+xdIgRSKYwxGGNStNWlMP/nkNwlR4rA+BiT4JBMVD+ODKMDItvNhrqqkEJM2k0KMEphjUFrjfeOIXtRsaj+osInDToL0zcxT2UKkYgLnrY9I4iTplGZGVWVVTWCcUxungdcBE+adMmVxVh6fH3nL3fb6CP94OjHEbKQbpoNSJmTtoJKmwRClcyhcU8JR4pVr18y9YTCQgjsD/uUQ9Kaqq6zSV6mLEQKpGmds+8pA94P/dTP27i91PJx4p8PyfSHGNBaJ3hgbHb15RRQlUJiTArcee8Yh4FxHCYzGwnJXE9XBulvFZpZCyx2YpzvFDfVOUc7dHjvsUazbWqM1ighUUImt7Oq0FrhvKcbRvrBvygcIs5XGffSb4p5h/kYaPuetu9zyH5DXVdIkaKz3qXciVKSyhqsraZEXoy3tNznjeZEZ9bh3nsOhwPeezZNQ2UrlFpHNUpeRytFZS22MgzDwPPTM6NzFIgXJ4dg7c3d8u2Kv+V8oBtGzm2LEJLNdouxFqXkbJoKT4lYY2jqmhgC4zgwDsMkJCGsr1VS87McWZC7JnPNWEkCl+fzCSEE1ljqqkJLmXMYWSVag7GWEAL9MNL1w5R9fm2JXosNFy3Tdh39MBCJbLcbmqpCEhMADAFiQEgx7TDnQs7+ziD29uCfERyRzMLoRtq2hRipmwZrLVJds1jAJLxNXeOc4/l5Tz8MlAj9cn6Xs18KThGYSPIa+2Gg63ukUmx3O7TRGdSuN6GIYIyhrmsgebRj9uRiiNM1gfzF9UahuQUQs72LIQeGIl3bcjwcMVpTVzZrmdklVwKsMVSVJYpU29F2fSKMbJJK6Gcx2qWGEQsSIAuNC5zbjm4YiEKw3e2oqio9HzNrs3bUWlMZg3cuaaDsedwUjUlgLjyYlZkXeO/p+55xGBFCTonBUkVw2bSS1LVhu2lS3Oh4pG07nPMvzZabMZwcjQ+ihBp6ur5Hac3d7g6d8dzM4HkCaZ3q5Jz4wDgMeOenhOmyFYEJISSh+Wy+KQPNQuBqOjEQg8cHz7lrOZ3PNJuGqqqTKr4wMSbbWaN0YnTXJfWX5yKmFVkvzJR7vLAaRS33g2MYR8hqt8pFRoLi4gqkFBShMVWNDxHnk6ZZOttJfS/oeEELRVKeK0jJeRzYd2dQCSuY4gAseLhiqSyCU2MqC0JwOJ7o+oFUkFXqfxaCk7PWxIAgIglI0mcfQnL1s4nTxlDVNUKmioLVDEQSAiUlVWXz5kpByX4Y8N6nEpIMnJc5yRACcqrd+JJkpShTSdnQGALOjfR9Rz8O1M1mImRVvBhBK01dVRijicHTDz3OB6bKhuWKlF/j1a1Vcy6p5dE5pJRYW03BM1FcTSkRKo2gjaGqKkKIyUT5MGm7q0FfaDMQTYJzHgcObYvUOTajEpYTNwSniIKUAltZqrpGGs3xfKLve2D2iCYFEZMJjCFpdVGuvJtC8Ckl4EaElKncwWiQC529AoNpM1ltqKsKkWNXXZeCsnM+6zqRLS/LIm4mJxdtyYAptBEDQ99PNrluNhibCntEXFTpxQQA66qisgaIDEPP4NKiCcm1Nrm4CgMnawM476axtdY0Tb2ISaTFEQVYZa+hqmpA4Hxg9B4/CY2Y1WIsapkrlT0JTL7OQ9I0yhgqW2GUmTWNKNpcJI1daBcCbQx1U2OriuPpTN/3yRPzpUhtXa4ZwjI8kgUopiTt4FKEWxmN0irNt7BOrC9E9qCUYdM0KCkZhp72fGYcx4t1nhWLlHIO7r3WXowfRIghpdCHcSSGgFI6+f+57jVhikRpMRXJHU1elA+etj0xDsNijBTTKFcp1p4mnRlRvuC9n4qspJQ5ryPnoqJpAlnTKE2VvQrvU1zHhzC7vMtSPiEmJi+N1SUt3qeMcCrwMgnLvai4s1sb06az1tI0NTFG2mHg3CcwnzB8Sguk2maRa58KFSUemTDV6FLcqaoqjDEzrUu6L9ZVCpECkNYiRcqFLdMKq5KMIjRD3qGXqP1Wu+ZBKQUMdG1HCBFrUqRTKbUqFC/flQK0VgnXWAMxcD6fGIZ+AsKXk1sKyCUxgaRpUowhoHVyZZexkUvqpZQJBGYvrmtb3JhC6SvBZWmG8smK1b3yM6b8VQhUUzJScklBMevL21Kk+NVms0EbTdf3fHx65ng80nUtfd9zPp04n870XTdFj2fkPqdOknAFqqrGGLPSFpeqYXJOpKC2NU1Vo7VOWrvv6Lse59wUqV5aHH3O6uitgjMPL4gi5l3mOZ1OhBBpmiZldGUyTbeakoK6qalbS9e1tKcj3aYhcIe8IZrLiS5/iRF8iIzO43xSqUYrKmsmr23+QkISparQSMlm0zAejrRtm3hgLSh18fy69heWnl5OkGahAWjqmtrYqcrttrAv8jgCKmPYbbdsNxvatuWvf/1vqipFs5u64Xg8IInUVcXD/Y6mqhBaTVT6mEpLx1w5UNcNxtjrcRcOV9FyUkhqa2nqhrqqac9nzqczUki2223SOBdAWLdtkuYiVdc5kFtRylKgKQkZFxxPZ6KUbDcbtFRTUF5MrF6sthDZ9U5u6Tnb8nEcMVpPSjHk3SQgAdnFTi3M6seU2o8huZBWG7RUk0krYy9TBCGmyObddkvbthzPLeM44ENNxGT+igmvsKSdWfNFYk6JDDiXhLayFbWxVFLlc1/LbZbmLkmaqzSZE6m/+vdfcj6dadszXdfRns4MXQ9E2r7neDjg/cjD/QPb7QYl02kH7yPOuawtA9bafKLhpRZnXma6mqZONTe55qc8E0tYZXHwQBdTcjueMCs1cXEnIlLxVQj0o6PtOrZ3O3bbbQroMUEC4mLHlV2aEH7CP2cBbdfy/PzMdrtFKUVwnvP5hBsdAsHu7o6qsvmITerMx1RS6rwDweTqqkXiMZ22WoksgogSgt2m4ZNWeDcw9B3j2OCNRSCJIglXqUS8rf8EIXjO3RnvHEZpKm0wOaOeckG3v7fsTwqB1JqHuztqa2krw+lk8N4BYspQn049+/0RKTVKp8CcR+BCzJHtmOp1tEEIiQ9pntNeXazgJd6yxrDb7TBaTXkwrTVSDYuVTztYf/jwgfv7e+o62bTlibyrFhMYmu049KPj3HeM3mOM5W67w0g1CcxUeFa8B5Lk+hCQQmb7e+Z4PNG2Hf/2859htKHrOv73f/0Xh1x59pvf/Ib3Hz6w3W6ReRePIQmND2ECwFqlQqMYY1p4SFHhxZQEyYtrpMAUMNye6eqGjakQ0oAERyRMynFh7IqdB2IIHA9HvPc0VZ3jM/ImC2P+Z2m1V1hdQFNZGmt4//AwYTwBPO33/Pij4tPTMxyOKFtjqmbS9N57VE5CKpkEJviAMIpiyCJzJP9ynZVSNErR1OtzUMM4pDrq7IEKAbpE+ZZMWZviuJj8LKtlF7sQU5wlxOSVGLtyWS+bFKnyXguBbBqUTu7h6Xym73qe9/v83ciH777j7v6eYRh42j+jjMZUFm1EXpiUIC2ZaqVUio1M9iNOwLoEDQUpFxVi8vRqa6mtSba8qtlVDabWQAqKuRim0tQSLBQCdNZGLniGvif6gDY2jRNiChCugO9Ca19gnbKdpqBi/mc6qSkSVrq/f+B0bhlGx/PhiG22SK0nECyFTDEwLTFaIMjZ9RXEuFyUpfGe17gAn6VCKquvIRVkh5zJfN0Bn2cbyacPcsU6QqKVwihFxGeblHecWJNUgJWREqEUQiYVfDZtcn/zrnl8eCTGwOl44u9//zvH84ldf08tJVoaAjG7mT6pTaWy15LnvPDEVozLng4y0NiK++2O47ml7zqOpxMyCtAKR+TsxoyZApWtsDadgJQ6RW1H5+j6nhhTJFoKsU6w3vBclm0SmOnn4suLZq1hu92w3d1xOJ44ns5UxxO2qnHeM7qA0pqmbjBKoOUCD3xFW+Dmq6bLWV/nHOu6teVRsLUDnPBMkgvnPMPoUVphpEJDPrdTtlkSnKUNLQCzLKjRBrFJ1WTez5qjaZrkFmrN3/7xD7q+59ye0cYglSKEdAjOBz/Ff1TGU2HBs+VVTIsUAu8dTV3x4f17QvyIG0Y+ffzI2I8IrRli4NCe6ccBYmTTNDzc33G/2+GlxAefi67aBIDrejrwtlTXMwSPV8JQtMtKYG44yFKmfNb79+8YRsfH5z1Pz3s2mzDxoq6bVPsr1ZRUfIs//KVNl4CNyl5LaTN0XGa0maYWKe6uw3mPNRVKm8QrIaZI8KXXnbU3xXUVQiCVxEgzv92h2NSYDmw1Vc3ju3eMbuR4PlFtNkijcz3siA8erXNhU8Y0iWGCa92ZtJySAolEVgqlDEppxtERXQISY9a+tqrQ1hKjxzvH835P3/c83t8hlUpCPnpUlUo/pJoj7EXjXbW4/rB+bu3zLahOvKg3bDZbjm2f62ZOyBwmqGxF3dQT7vxKJXNN4qqJZJ5KTejSTZ3Jnhkw4Zusf0u0cixvIdCaSERmPPAClp77FguxFHOEJlUAJu0npcBYw+P7Rz4+PXHqOnbjgLIG71OSLvqAQmJU8lrKIghYuP4L0CkEoKY4hVRmwgbeeYbeIZyD6Km0TgXrIdC2J7qu43g4IGJI3ovz+NGhcgmlLAnCJcJ9kf2vNbFmYdaOxppc91tzPLech37KqldGUeeTq5OXejXOa4Zn3ZYaevocQYc4+9+XD5QhpGCyJ1GWCrukEcYxFWhvm3uUVjloJKcvL0sO1gftr6BXXuSszQQIleItSMHDu0cO7Znn05HWD0hvUjp/HFERLAkjlRMRS5O+SpoWkymATKcErDYYZQg2YrTHeo8npiCaTP5XW1k+ffrE/vmJjz9+TO9qMZowOiSpTifKVKYwWefJIi2cA7EOAXDj0/ru/DclBZum4n634XQ40B2PhBDY/PznWAVGpfmEssJFgko38Vq3rUdbBC9ZOz2lG13MxVJglngDQMEUdylxhwD4XLjjvadpNlhTEZeSsRDoJd2XrShiGdMFKTaClFMW2ahUOCWtphtH/PlEzF5QIy21tmixzpXI5QBXYOI2zwQCoxVSScpLikqmWDZNqsEZR3785w+Mw4DOJrG2VQ4qzniqbIKrarusAi4F4nO6B3JEVim2Tc3DrkHElJfaVoZKS+Z4djqDJqd5pV+KC39LbJfsSghCEGN5yZWYBEmXwuFSG7oUmAKiRL4ho5ilLkScG3MkNIFEa6o5sMBa8C7bpZKcAOHiphTzJJVIJQ+VrRL4HHqiT16aNYbGVsndzgO/WuXxyh+FAKESJptNQxIEITXbumbcbHmSP3I+nxEIttstTV2/kG+KN5lwTUHhyC3zURgacwBPUFeWh/s7dK51vts2VEbPplgwpXEux7p0sl9qS6doSZG+fKi43WHhAEz5sZjd2JgkfhhGvPMoIdk2G6wxi4mvqX3Nkr5EfhGiYmpqa9k0Dc+HPae2JTjPQ9VQVZamqV6sknsDf1aPFMUkFp8LHZUx7DYb7rY7zscTXd/xy1/8gm2zSfhoUaQmrzq/tb/jjU/XBM+7P3l/xlgeHh7ZbFJ+yFqzyjelOqIbWu4btLXQhEgQ4UpoRFZRYZ5VAqpjSRJqtEweyQsbK0/kQru88Pvy2XJfArWx7JqU1OtoiSEdE6mrCmPNlNl+ay3Z5XjAVKNzs4vIBHjfv3sPMdJ3He8eHmiqfLaIGUNd9Pxyv9PfxeLTDV0kUgCzEKmkxFqb6nbzAbw34O+f3C6yWrNXVCKtMUYMCi3TlQKxqYLMj+kMsjVpwcrxiAnrfQ3lF9pp2YXVmm3d0DUbonOMyrFr0qmD6bVv/wJurRdCYLXmfneHEoJxHLnb7tL5Li5AN69vjK+hQU2Vb0loPvf8t9czl0JT0t95B3V9ertDpS0bW6PqGinSixxD8LnoSaC1mcoDpYAYVtDmJ7VlH0YpdlUN9480xuKd526zoa7qnAW/NotfPN4LdrTclkIglGZTS5qqSn+bandiik+JnyosLyOO1/q6jYReAwZf1/T6QxrG5SDW8XhkHB0bW+G3d4gYadSGEEM+8jAgZcp3TKox4x3EnOD63ATXrwe7eEjMWkshQCrumoaNsYQYUxRaqW8ioZcm8QYp01NSyOw2zPdFUbE3TdxFMOMFxrw0jfnbX6PCv5X6Tf3o5UcpBKNztOczx+ORvkvVdE6MnNszopQKSBiGVP+itZreQPCvaCKD7zncLtDKgDIZGBb6pwd+2njc3pcrzSFKcdacaJmU3Eue25pYpiqoL2hx9dv6u/9KDDP1nwe5qtTpuo7Dfk/Xtth8rFVGGPuBj+eWdhzQ1uBjOpVXVbuUIxIXDHzjLK4eu7FqS0106eVM7BNi8rJ+aisa8/rmkrycJmFdZlA8vm/f4uLf2250uf/tDdJyTDELTSQlGtuu43Q6YbRht93xcH+P0Zru1HI6HDidjoRTnMBu8V4Q5U1MC4l5Rdd+tYK9FKgy3Lfeaq+AiiXIF0vfnBnb/P/aUlkIRVvG/M6WkeADzaZhu9mw2WwwSqOFghBo+47T8cTgximrW0oLS+ETgpfPUL3Azzet+aXA8DIG+Ze2heBcndf6kk6+fvjP3l/y5tuJcFrcEmUmhpBrWRzWptK/pmmmV8Rba9nd3bPd7HDjyNOnT7h8qErmms6Qz/8uIeOyxXg5/E9XEv/jAnMx8PXeeMsSfQXV2RaX6DwLnf4SD5du/1uvt1CtlSyvZU2C8e7dO+7u7zDGooymaF9BOnpyd7/jl+GX3D880Gw3bPO72wpIhfyadBbVIUsQuOLCbd7cwgQ3u1hN6BuJzxdsy+kN75/t6sJzKl7hl5B1dQIUPhcM+1INU4rIy+Yux5jjoqhcCjG/sRwExmhqrdNLkYu2ECnnJCJII9jlNxHcD+nds6lQqhyKm0mdCRbTgDOEvPGK+6+dbPw6gXn1rVNvIKAcZitOMFyD9Je6Wrzn/KrXF8crQlMEVYhVwf7cd0mDJO3/JbwsJziTFhMQ5yrEKUUiRKoRjmGWIplfDbIcTKYKGSRgjMZWFh/ipKGKdM4H51m5UWuhKacYX2fSl7Qvfmk2nxGaN7Tl/1Qy9Xn5DC8ITV7Ql2m+/tbla+6mOV/QEBf9L59/S4uxnBWft0KMMdXxaD2/UaxtW77//nv+13/+J9vdFqHkqgYGcrlCFoqYHfZ1sGme58o25tBo0SoJNM7a5lu2wsQ3HTP+jIC9+U2fi+decoG/lobPjvdqpn7+29e+Fq8cnGzblr/97W/85S9/4fn5GaUU+nQ68ac//Qmd34E/nZsuBLAAXwGiiHOVX/7PIBJ1a+A1/fM/IDTLA+rweUZ9K6G5fHaO1ny+/b8qNJf/P9Q4jjw/P/PnP/+Zp6cnvvvuO/4vfyIUZq0a4T8AAAAASUVORK5CYII=;" parent="1" vertex="1">
                    <mxGeometry x="600" y="-404" width="141" height="50" as="geometry"/>
                </mxCell>
                <mxCell id="247" value="&lt;b&gt;&lt;font color=&quot;#3e698f&quot; style=&quot;font-size: 17px;&quot;&gt;Predict data&lt;/font&gt;&lt;/b&gt;" style="text;html=1;strokeColor=none;fillColor=none;align=center;verticalAlign=middle;whiteSpace=wrap;rounded=0;dashed=1;strokeWidth=2;fontSize=16;" parent="1" vertex="1">
                    <mxGeometry x="611.5" y="-426" width="118" height="30" as="geometry"/>
                </mxCell>
                <mxCell id="252" value="&lt;b&gt;&lt;font color=&quot;#3e698f&quot; style=&quot;font-size: 17px;&quot;&gt;History data&lt;/font&gt;&lt;/b&gt;" style="text;html=1;strokeColor=none;fillColor=none;align=center;verticalAlign=middle;whiteSpace=wrap;rounded=0;dashed=1;strokeWidth=2;fontSize=16;" parent="1" vertex="1">
                    <mxGeometry x="-208" y="-463" width="118" height="30" as="geometry"/>
                </mxCell>
                <mxCell id="253" value="&lt;b&gt;&lt;font color=&quot;#1a1a1a&quot; style=&quot;font-size: 15px;&quot;&gt;Trend&lt;/font&gt;&lt;/b&gt;" style="text;html=1;strokeColor=none;fillColor=none;align=center;verticalAlign=middle;whiteSpace=wrap;rounded=0;dashed=1;strokeWidth=2;fontSize=16;" parent="1" vertex="1">
                    <mxGeometry x="190" y="-473" width="50" height="30" as="geometry"/>
                </mxCell>
                <mxCell id="254" value="&lt;b&gt;&lt;font color=&quot;#1a1a1a&quot; style=&quot;font-size: 15px;&quot;&gt;Season&lt;/font&gt;&lt;/b&gt;" style="text;html=1;strokeColor=none;fillColor=none;align=center;verticalAlign=middle;whiteSpace=wrap;rounded=0;dashed=1;strokeWidth=2;fontSize=16;" parent="1" vertex="1">
                    <mxGeometry x="190" y="-382" width="50" height="30" as="geometry"/>
                </mxCell>
                <mxCell id="262" style="edgeStyle=none;html=1;exitX=1;exitY=0.5;exitDx=0;exitDy=0;entryX=0;entryY=0.5;entryDx=0;entryDy=0;strokeWidth=1;fontSize=15;fontColor=#1A1A1A;" parent="1" source="255" target="257" edge="1">
                    <mxGeometry relative="1" as="geometry"/>
                </mxCell>
                <mxCell id="255" value="&lt;b&gt;CNN&lt;/b&gt;" style="rounded=1;whiteSpace=wrap;html=1;strokeColor=#82b366;fontSize=15;fillColor=#d5e8d4;" parent="1" vertex="1">
                    <mxGeometry x="228.75" y="-652" width="52" height="72" as="geometry"/>
                </mxCell>
                <mxCell id="263" style="edgeStyle=none;html=1;exitX=1;exitY=0.5;exitDx=0;exitDy=0;entryX=0;entryY=0.5;entryDx=0;entryDy=0;strokeWidth=1;fontSize=15;fontColor=#1A1A1A;" parent="1" source="257" target="258" edge="1">
                    <mxGeometry relative="1" as="geometry"/>
                </mxCell>
                <mxCell id="257" value="&lt;b&gt;CNN&lt;/b&gt;" style="rounded=1;whiteSpace=wrap;html=1;strokeColor=#82b366;fontSize=15;fillColor=#d5e8d4;" parent="1" vertex="1">
                    <mxGeometry x="308.75" y="-652" width="52" height="72" as="geometry"/>
                </mxCell>
                <mxCell id="265" style="edgeStyle=none;html=1;exitX=1;exitY=0.5;exitDx=0;exitDy=0;strokeWidth=1;fontSize=15;fontColor=#1A1A1A;" parent="1" source="258" edge="1">
                    <mxGeometry relative="1" as="geometry">
                        <mxPoint x="440.75" y="-616.0344827586207" as="targetPoint"/>
                    </mxGeometry>
                </mxCell>
                <mxCell id="258" value="" style="ellipse;whiteSpace=wrap;html=1;aspect=fixed;strokeWidth=2;" parent="1" vertex="1">
                    <mxGeometry x="379.75" y="-628" width="24" height="24" as="geometry"/>
                </mxCell>
                <mxCell id="259" value="" style="endArrow=none;html=1;exitX=0;exitY=0.5;exitDx=0;exitDy=0;entryX=1;entryY=0.5;entryDx=0;entryDy=0;strokeWidth=4;" parent="1" source="258" target="258" edge="1">
                    <mxGeometry width="50" height="50" relative="1" as="geometry">
                        <mxPoint x="321.75" y="-614" as="sourcePoint"/>
                        <mxPoint x="371.75" y="-664" as="targetPoint"/>
                    </mxGeometry>
                </mxCell>
                <mxCell id="260" value="" style="endArrow=none;html=1;exitX=0.5;exitY=0;exitDx=0;exitDy=0;entryX=0.5;entryY=1;entryDx=0;entryDy=0;strokeWidth=4;" parent="1" source="258" target="258" edge="1">
                    <mxGeometry width="50" height="50" relative="1" as="geometry">
                        <mxPoint x="321.75" y="-610" as="sourcePoint"/>
                        <mxPoint x="353.75" y="-610" as="targetPoint"/>
                    </mxGeometry>
                </mxCell>
                <mxCell id="261" value="" style="endArrow=classic;html=1;strokeWidth=1;fontSize=15;fontColor=#1A1A1A;entryX=0;entryY=0.5;entryDx=0;entryDy=0;" parent="1" target="255" edge="1">
                    <mxGeometry width="50" height="50" relative="1" as="geometry">
                        <mxPoint x="180.75" y="-615" as="sourcePoint"/>
                        <mxPoint x="220.75" y="-625" as="targetPoint"/>
                    </mxGeometry>
                </mxCell>
                <mxCell id="264" value="" style="endArrow=classic;html=1;strokeWidth=1;fontSize=15;fontColor=#1A1A1A;entryX=0.5;entryY=1;entryDx=0;entryDy=0;" parent="1" target="258" edge="1">
                    <mxGeometry width="50" height="50" relative="1" as="geometry">
                        <mxPoint x="200.75" y="-615" as="sourcePoint"/>
                        <mxPoint x="220.75" y="-565" as="targetPoint"/>
                        <Array as="points">
                            <mxPoint x="200.75" y="-565"/>
                            <mxPoint x="391.75" y="-565"/>
                        </Array>
                    </mxGeometry>
                </mxCell>
                <mxCell id="276" style="edgeStyle=none;html=1;exitX=1;exitY=0.5;exitDx=0;exitDy=0;entryX=0;entryY=0.5;entryDx=0;entryDy=0;" parent="1" source="275" target="201" edge="1">
                    <mxGeometry relative="1" as="geometry"/>
                </mxCell>
                <mxCell id="275" value="&lt;b&gt;Spatial&lt;br&gt;temoral&lt;br&gt;embedding&lt;br&gt;&lt;/b&gt;" style="rounded=1;whiteSpace=wrap;html=1;strokeColor=#b46504;fontSize=15;fillColor=#fad7ac;" parent="1" vertex="1">
                    <mxGeometry x="-45" y="-443" width="92" height="72" as="geometry"/>
                </mxCell>
                <mxCell id="294" style="edgeStyle=none;html=1;exitX=1;exitY=0.5;exitDx=0;exitDy=0;entryX=0;entryY=0.5;entryDx=0;entryDy=0;" parent="1" source="278" target="293" edge="1">
                    <mxGeometry relative="1" as="geometry"/>
                </mxCell>
                <mxCell id="278" value="" style="rounded=0;whiteSpace=wrap;html=1;fillColor=#eeeeee;strokeColor=#36393d;" parent="1" vertex="1">
                    <mxGeometry x="-500" y="-1120" width="60" height="40" as="geometry"/>
                </mxCell>
                <mxCell id="279" value="" style="rounded=0;whiteSpace=wrap;html=1;fillColor=#dae8fc;strokeColor=#6c8ebf;" parent="1" vertex="1">
                    <mxGeometry x="-240" y="-1120" width="40" height="40" as="geometry"/>
                </mxCell>
                <mxCell id="280" value="" style="rounded=0;whiteSpace=wrap;html=1;fillColor=#dae8fc;strokeColor=#6c8ebf;" parent="1" vertex="1">
                    <mxGeometry x="-200" y="-1120" width="60" height="40" as="geometry"/>
                </mxCell>
                <mxCell id="281" value="" style="rounded=0;whiteSpace=wrap;html=1;fillColor=#dae8fc;strokeColor=#6c8ebf;" parent="1" vertex="1">
                    <mxGeometry x="-140" y="-1120" width="60" height="40" as="geometry"/>
                </mxCell>
                <mxCell id="282" value="" style="rounded=0;whiteSpace=wrap;html=1;fillColor=#dae8fc;strokeColor=#6c8ebf;" parent="1" vertex="1">
                    <mxGeometry x="-280" y="-1120" width="40" height="40" as="geometry"/>
                </mxCell>
                <mxCell id="283" value="P" style="text;html=1;strokeColor=none;fillColor=none;align=center;verticalAlign=middle;whiteSpace=wrap;rounded=0;" parent="1" vertex="1">
                    <mxGeometry x="-487" y="-1090" width="30" height="10" as="geometry"/>
                </mxCell>
                <mxCell id="284" value="N" style="text;html=1;strokeColor=none;fillColor=none;align=center;verticalAlign=middle;whiteSpace=wrap;rounded=0;" parent="1" vertex="1">
                    <mxGeometry x="-500" y="-1105" width="10" height="10" as="geometry"/>
                </mxCell>
                <mxCell id="285" value="N" style="text;html=1;strokeColor=none;fillColor=none;align=center;verticalAlign=middle;whiteSpace=wrap;rounded=0;" parent="1" vertex="1">
                    <mxGeometry x="-280" y="-1105" width="10" height="10" as="geometry"/>
                </mxCell>
                <mxCell id="289" value="D" style="text;html=1;strokeColor=none;fillColor=none;align=center;verticalAlign=middle;whiteSpace=wrap;rounded=0;" parent="1" vertex="1">
                    <mxGeometry x="-275" y="-1090" width="30" height="10" as="geometry"/>
                </mxCell>
                <mxCell id="290" value="D" style="text;html=1;strokeColor=none;fillColor=none;align=center;verticalAlign=middle;whiteSpace=wrap;rounded=0;" parent="1" vertex="1">
                    <mxGeometry x="-238" y="-1090" width="30" height="10" as="geometry"/>
                </mxCell>
                <mxCell id="291" value="P" style="text;html=1;strokeColor=none;fillColor=none;align=center;verticalAlign=middle;whiteSpace=wrap;rounded=0;" parent="1" vertex="1">
                    <mxGeometry x="-185" y="-1090" width="30" height="10" as="geometry"/>
                </mxCell>
                <mxCell id="292" value="P" style="text;html=1;strokeColor=none;fillColor=none;align=center;verticalAlign=middle;whiteSpace=wrap;rounded=0;" parent="1" vertex="1">
                    <mxGeometry x="-125" y="-1090" width="30" height="10" as="geometry"/>
                </mxCell>
                <mxCell id="295" style="edgeStyle=none;html=1;exitX=1;exitY=0.5;exitDx=0;exitDy=0;entryX=0;entryY=0.5;entryDx=0;entryDy=0;" parent="1" source="293" target="285" edge="1">
                    <mxGeometry relative="1" as="geometry"/>
                </mxCell>
                <mxCell id="293" value="&lt;b&gt;Spatial&lt;br&gt;temoral&lt;br&gt;embedding&lt;br&gt;&lt;/b&gt;" style="rounded=1;whiteSpace=wrap;html=1;strokeColor=#b46504;fontSize=15;fillColor=#fad7ac;" parent="1" vertex="1">
                    <mxGeometry x="-400" y="-1138" width="82" height="76" as="geometry"/>
                </mxCell>
                <mxCell id="304" value="&lt;font style=&quot;font-size: 20px;&quot;&gt;&lt;b&gt;X&lt;/b&gt;&lt;/font&gt;" style="text;html=1;strokeColor=none;fillColor=none;align=center;verticalAlign=middle;whiteSpace=wrap;rounded=0;" parent="1" vertex="1">
                    <mxGeometry x="-504" y="-1158" width="60" height="30" as="geometry"/>
                </mxCell>
                <mxCell id="305" value="&lt;font style=&quot;font-size: 20px;&quot;&gt;&lt;b&gt;Z&lt;/b&gt;&lt;/font&gt;" style="text;html=1;strokeColor=none;fillColor=none;align=center;verticalAlign=middle;whiteSpace=wrap;rounded=0;" parent="1" vertex="1">
                    <mxGeometry x="-219" y="-1158" width="60" height="30" as="geometry"/>
                </mxCell>
                <mxCell id="313" value="" style="shape=image;verticalLabelPosition=bottom;labelBackgroundColor=default;verticalAlign=top;aspect=fixed;imageAspect=0;image=data:image/png,iVBORw0KGgoAAAANSUhEUgAAAMYAAAAdCAYAAADxYhOxAAAHrklEQVR4Ae2b+0sWTRTH+1fVRJHyGmIYmVQqXcgyNSsjU8pIu0BqRSJKgZeMRCwrIoiy8pJJYdkv8/IZOA/z7DO7rq+7+6wwPzzM7szuzDlnvt9zmdV9//79U+7nbOAwkI2Bfc4g2QZx9nD2AAOOGC5iuozBggFHDItR0hg1tra21MLCgnr27Jnv79WrV+rPnz8ZoP/8+VNtbm5m7kUv5nr06JHq7OxUAwMDOePyXL7bubk51dXVlfO7f/++Wl5ezpEbXdE5CrkdMfYIMb5//65aWloU4AcUo6OjqqKiQr1580bfQ5iOjo4MMb5+/apqamrUzMyMFSi/fv1Szc3NamxszDoeBbiimANnUFlZqV6/fq3l/P37t5qamlKHDh1S8/PzWbJD8qamJoVuu13bEWOPEOPly5eKn2z4zZs31cmTJ9XGxobugywjIyOZcaICY7TyjtlCtCNHjqi3b99ax81n83lNZDt69KhaX1/PknNoaChLf2SENPyikDc0MTB8T09PTljr6+vTQr9//z5njDCIAn///o1E2LAKk048fPjQKo8tNI+Pjycm305lu3fvngLERIgfP35oOfGIeEbIITb58OGDevHihb6HDADJZneAs7a2pmZnZ1VjY2MO4GS+KFo/zNj24OrVq4p9MIGNHkRBfl6CEzWIiKyBrLwnTkJkt/XJmF+aKeOhiUH+trKyor1SQUGBZjFkwMgIjRAI2d3drRi/fPmyWlpaitXwooS3BXykHI8fP1YHDx5UZWVlmihmfj4xMaEuXryoioqK1N27dzMA884V9f3Hjx91CoS3f/Lkia4Xnj59qqqqqrLkRL4LFy5o+bzp0OfPn3V6MTk5mSM3+4Q+N27c0PpJzUH/4OCg7idHr62ttQIuSn3x9iUlJdpBoQ/2v337ttaJKCB92OHw4cM6PQJjIsPq6qrut6V7zC3EePfunbp165Y6fvy4rsN4f3FxUTsOs4+1+bEGqRhzyFreNjQx5EXyOID/4MGDnEnZhHPnzqn9+/dnhX15N+kW40AKv7xT5LUZPi5Z2Qw8JkCVNSBLeXl5TsqA16euwAHJs7QQgrwbgpj9XJOLM8467IUQgzTr/Pnzel08K8SMU28cJes/f/48S0bkAj9mtENu6oUzZ85k1QekedXV1TnpnkSSY8eOacdMVP306ZNqaGjQ86Czt0+iLPLwPs4jMmKg7OnTp7UX8BY+KCdMhMmEf++mJX3vtwmmHIRpr0c2x6O8xn7t7e2KtMecF4AClmvXrmX1A2CeN70o73nrC3MuCEeacOrUKZ2aMMb7dXV1GSIkUV9AdiIyOot84ohsjhMndv369cyzvMP+2eoL0QdwA3JATxpJdEB3Wx9OpL6+XiEXc7PnNgyLrDuKGBgU0BOGvJvFhCxE6DQ9lSyUdItx2traVGFhYRbwkbu3tzfjmQBjUgUom8N64sXFJvRBDK93JTXlSNU8ZRHP5/W4Mhct+lA/8D7Pc0/qJKCgiGecNNiMXOYcu72G7N6IJKkRaeO3b9+ySEDNYGYh7J+tvqCfaMCJmhzNyrPUs+grtRV2FTtBhBMnTmQOJKhBkcdPzx0RYzvgw2A2mNZvwaT6ZRO8KQfgI/8WOfDKYkjpi6sFhCbIWYd0Ca9IKiXAlfXF+8s9bVB9Ic+RR1PrcdRJWkUqxgkURAFE5OOAjjqMbwXyXpQtenpJJ/gh6zAjCeuyD2af7J9JLvaJeoTIYBLry5cvWj/0hDRCGKIt9RvzE32455qjbA4zgvTdETEE+Gyk7WSBSELECApRQcJEOSb1BWf9gAB5iWSlpaUaLFGutZu52MwDBw7ozQYcfnPxHDoACg4MaIl8tshNcU090d/fr0ECQPGed+7c0e9cuXJFp1rcB63pJ8v/7Sci4Di3+6gI+EkFi4uLdd2B3uhDTYGnNwmELJAEe0D46enpjA1xgtRo1FdggChJVOE5nESQHqGJIfkhwIcg5gkP13IClLb6gnRKZAUQyGcrWoOMFOeYX32xmzWJCrbjWjypeHGbR9/Nmtu9K/ix1RfbvRtmHLLYSE6/nJwScbgOkyGEJobUFxyr2XKzoDAZRrEonwEYEMK7CXgWCkIxIN8FOOqLcu2dznXp0iVrfbHTedL+PJGNjMJWX6RR9tDEoGADaH6FtYTJNNcXnAYRSmUjhoeHMyc30pdkG1RfJClHEmulyXGG0Tc0MaS+ME8OZIG4w6SsE7aV+sJW5MkceLDW1lZrji7PxN1KfWH+aUfca+Zr/jQ5zjA2CEUM8rSg7xeSZqWtvpCjOq8hSLUgOqc33rEk7+OoL5KUP+xaaXOcYeQORQw5IvT7fsHHFdKsIA8dRpgonpFN8H6/kLk5quOUg+NR74c2eSaJFnJyUmL7fpHE+kmuIY5zr9QX2CaQGFJXsHnm7+zZs/p0Q/48xBzj2pZuxb0RpEZ8xPLK4nfP3yFBorjlMueXyOsnE/Lbjl/NOfbKNd9kcD5+uvK3dGnWJZAYaRbcyeb+BTVODDhi7JH/x4gTBG7uXCfjiOGIkeqUJl+kdcRwxHDEsGDAEcNilHx5KbdubkqTL5s4YjhiuIhhwYAjhsUo+fJSbl0XMZyXcoRMNQZcxHAATTVA8xVF/wNhF5DPUCSMOwAAAABJRU5ErkJggg==;" parent="1" vertex="1">
                    <mxGeometry x="-279" y="-1079" width="198" height="29" as="geometry"/>
                </mxCell>
                <mxCell id="314" value="&lt;span style=&quot;font-size: 16px;&quot;&gt;&lt;b&gt;Feed forward&lt;/b&gt;&lt;/span&gt;" style="rounded=1;whiteSpace=wrap;html=1;fillColor=#e3c800;strokeColor=#B09500;fontColor=#000000;" vertex="1" parent="1">
                    <mxGeometry x="260" y="-472" width="94" height="62" as="geometry"/>
                </mxCell>
                <mxCell id="322" style="edgeStyle=none;html=1;exitX=1;exitY=0.5;exitDx=0;exitDy=0;entryX=0;entryY=0.5;entryDx=0;entryDy=0;" edge="1" parent="1" source="315" target="242">
                    <mxGeometry relative="1" as="geometry">
                        <Array as="points">
                            <mxPoint x="400" y="-430"/>
                            <mxPoint x="400" y="-409"/>
                            <mxPoint x="400" y="-380"/>
                        </Array>
                    </mxGeometry>
                </mxCell>
                <mxCell id="326" style="endArrow=none;edgeStyle=none;html=1;exitX=0;exitY=0;exitDx=0;exitDy=0;entryX=0;entryY=1;entryDx=0;entryDy=0;dashed=1;strokeWidth=2;fontSize=15;fontColor=#1A1A1A;strokeColor=#666666;" edge="1" parent="1" source="315" target="267">
                    <mxGeometry relative="1" as="geometry"/>
                </mxCell>
                <mxCell id="315" value="&lt;span style=&quot;font-size: 16px;&quot;&gt;&lt;b&gt;Feed forward&lt;/b&gt;&lt;/span&gt;" style="rounded=1;whiteSpace=wrap;html=1;fillColor=#e3c800;strokeColor=#B09500;fontColor=#000000;" vertex="1" parent="1">
                    <mxGeometry x="270" y="-462" width="94" height="62" as="geometry"/>
                </mxCell>
                <mxCell id="317" value="&lt;span style=&quot;font-size: 16px;&quot;&gt;&lt;b&gt;Feed forward&lt;/b&gt;&lt;/span&gt;" style="rounded=1;whiteSpace=wrap;html=1;fillColor=#e3c800;strokeColor=#B09500;fontColor=#000000;" vertex="1" parent="1">
                    <mxGeometry x="250" y="-388" width="94" height="62" as="geometry"/>
                </mxCell>
                <mxCell id="318" value="&lt;span style=&quot;font-size: 16px;&quot;&gt;&lt;b&gt;Feed forward&lt;/b&gt;&lt;/span&gt;" style="rounded=1;whiteSpace=wrap;html=1;fillColor=#e3c800;strokeColor=#B09500;fontColor=#000000;" vertex="1" parent="1">
                    <mxGeometry x="260" y="-378" width="94" height="62" as="geometry"/>
                </mxCell>
                <mxCell id="324" style="edgeStyle=none;html=1;exitX=1;exitY=0.5;exitDx=0;exitDy=0;" edge="1" parent="1" source="319">
                    <mxGeometry relative="1" as="geometry">
                        <mxPoint x="439.9999999999998" y="-380" as="targetPoint"/>
                        <Array as="points">
                            <mxPoint x="400" y="-337"/>
                            <mxPoint x="400" y="-380"/>
                        </Array>
                    </mxGeometry>
                </mxCell>
                <mxCell id="319" value="&lt;span style=&quot;font-size: 16px;&quot;&gt;&lt;b&gt;Feed forward&lt;/b&gt;&lt;/span&gt;" style="rounded=1;whiteSpace=wrap;html=1;fillColor=#e3c800;strokeColor=#B09500;fontColor=#000000;" vertex="1" parent="1">
                    <mxGeometry x="270" y="-368" width="94" height="62" as="geometry"/>
                </mxCell>
                <mxCell id="325" style="endArrow=none;edgeStyle=none;html=1;exitX=1;exitY=0;exitDx=0;exitDy=0;entryX=1;entryY=1;entryDx=0;entryDy=0;strokeWidth=2;fontSize=15;fontColor=#1A1A1A;strokeColor=#666666;dashed=1;" edge="1" parent="1" source="315" target="267">
                    <mxGeometry relative="1" as="geometry">
                        <mxPoint x="542.5" y="-463" as="sourcePoint"/>
                        <mxPoint x="418.75" y="-625" as="targetPoint"/>
                    </mxGeometry>
                </mxCell>
            </root>
        </mxGraphModel>
    </diagram>
</mxfile>